<?xml version="1.0" encoding="utf-8"?>
<!-- Generator: Adobe Illustrator 22.0.0, SVG Export Plug-In . SVG Version: 6.00 Build 0)  -->
<svg version="1.1" id="Слой_1" xmlns="http://www.w3.org/2000/svg" xmlns:xlink="http://www.w3.org/1999/xlink" x="0px" y="0px"
	 viewBox="0 0 479.6 448.5" style="enable-background:new 0 0 479.6 448.5;" xml:space="preserve">
<path id="Дом" d="M239.9,0.1l-240,166.4l18,25.6l222-153.6l222,153.6l18-25.6L239.9,0.1z"/>
<path id="Крыша" d="M239.9,65.7c-64,44-128,88-192,132v224c46.7,0,93.3,0,140,0c0.3-57.7,0.7-115.3,1-173c35.7,0,71.3,0,107,0
	c0.3,57.7,0.7,115.3,1,173c45,0,90,0,135,0v-224C367.9,153.7,303.9,109.7,239.9,65.7z"/>
<rect x="9.9" y="421.7" width="458" height="27"/>
</svg>
