<?xml version="1.0" encoding="utf-8"?>
<!-- Generator: Adobe Illustrator 22.0.0, SVG Export Plug-In . SVG Version: 6.00 Build 0)  -->
<svg version="1.1" id="Слой_1" xmlns="http://www.w3.org/2000/svg" xmlns:xlink="http://www.w3.org/1999/xlink" x="0px" y="0px"
	 viewBox="0 0 128 119.7" style="enable-background:new 0 0 128 119.7;" xml:space="preserve">
<path id="Дом" d="M63.9,0.1l-64,44.4l4.8,6.8l59.2-41l59.2,41l4.8-6.8L63.9,0.1z"/>
<path id="Крыша" d="M63.8,18.2c-17,11.6-33.9,23.1-50.9,34.7c0,17.1,0,34.1,0,51.2c12.4,0,24.8,0,37.2,0
	c0.1-14.1,0.2-28.1,0.3-42.2c9.5,0,18.9,0,28.4,0c0.1,14.1,0.2,28.1,0.3,42.2c12,0,23.9,0,35.9,0c-0.2-17.3-0.4-34.6-0.6-51.8
	C97.5,40.8,80.7,29.5,63.8,18.2z"/>
<rect x="-0.1" y="104" width="128.1" height="15.7"/>
</svg>
